<svg xmlns="http://www.w3.org/2000/svg" viewBox="0 0 32 32" width="32" height="32">
  <rect width="32" height="32" rx="6" fill="#0E0E10"></rect>
  <g fill="#F7F5F1" transform="translate(2 10) scale(0.037)">
    <path d="M 40 340 L 126 60 L 210 60 L 296 340 L 228 340 L 210 280 L 126 280 L 108 340 Z M 142 228 L 194 228 L 168 128 Z"></path>
    <path d="M 312 60 L 404 60 C 478 60 526 116 526 200 C 526 284 478 340 404 340 L 312 340 Z M 372 118 L 372 282 L 402 282 C 440 282 466 250 466 200 C 466 150 440 118 402 118 Z"></path>
    <path d="M 536 140 C 564 170 564 230 536 260 L 558 260 C 584 230 584 170 558 140 Z"></path>
    <path d="M 596 108 C 634 148 634 252 596 292 L 618 292 C 654 252 654 148 618 108 Z"></path>
    <path d="M 656 76 C 704 128 704 272 656 324 L 678 324 C 724 272 724 128 678 76 Z"></path>
  </g>
</svg>